<svg xmlns="http://www.w3.org/2000/svg" width="25" height="25" viewBox="0 0 11 11">
  <path id="facebook" d="M3.5-11.5a.961.961,0,0,0-.7.3.961.961,0,0,0-.3.7v9a.961.961,0,0,0,.3.7.961.961,0,0,0,.7.3h9a.961.961,0,0,0,.7-.3.961.961,0,0,0,.3-.7v-9a.961.961,0,0,0-.3-.7.961.961,0,0,0-.7-.3Zm0,1h9v9H9.906V-4.875h1.3l.188-1.5H9.906v-.969a.865.865,0,0,1,.125-.531.766.766,0,0,1,.609-.2h.813V-9.437a10.46,10.46,0,0,0-1.172-.047,1.927,1.927,0,0,0-1.414.516A1.97,1.97,0,0,0,8.344-7.5v1.125H7.031v1.5H8.344V-1.5H3.5Z" transform="translate(-2.5 11.5)" fill="#fff"/>
</svg>
