<svg xmlns="http://www.w3.org/2000/svg" xmlns:xlink="http://www.w3.org/1999/xlink" width="372.195" height="23.938" viewBox="0 0 372.195 23.938">
  <defs>
    <clipPath id="clip-path">
      <path id="Caminho_46647" data-name="Caminho 46647" d="M40.264,13.361a4.914,4.914,0,0,0-2.021.266,11.732,11.732,0,0,0-2.094,1.181c-.224.151-.475.33-.475.33a8.8,8.8,0,0,1,.546-1.016,3.285,3.285,0,0,1,.725-.807,6.772,6.772,0,0,1,.744-.524c.105-.061.167-.1.167-.1a3.212,3.212,0,0,0-1.079.28,8.22,8.22,0,0,0-1.812,1.033c-.552.417-1.27,1.039-1.473,1.209s-.639.548-1,.8a3.231,3.231,0,0,1-.847.465c-.282.1-.474.12-.8.232a6.727,6.727,0,0,0-.933.368c-.186.112-.4.266-.342.465a1.234,1.234,0,0,0,.181.367,3.159,3.159,0,0,1,.787-.389,2.673,2.673,0,0,1,.919-.107,2.219,2.219,0,0,1,.335.052,5.424,5.424,0,0,1-.872.715,27.947,27.947,0,0,1-2.789,1.556c-.9.421-2.232,1.019-2.923,1.446a3.227,3.227,0,0,0-.939.737,1.014,1.014,0,0,0-.184.367,1.489,1.489,0,0,0,.552.217,3.719,3.719,0,0,0,1.1-.028,1.878,1.878,0,0,1,1.07.187,1.742,1.742,0,0,0,1.13.186,1.217,1.217,0,0,0,.484-.269,1.385,1.385,0,0,1-.489.933,1.949,1.949,0,0,1-1.305.531,1.17,1.17,0,0,0-.427.051.727.727,0,0,0-.363.628c-.019.214-.017.426-.027.593a1.225,1.225,0,0,1-.044.279.741.741,0,0,1-.053.149s-.288-.538-.5-.894-.631-.979-.631-.979a7.665,7.665,0,0,0,.072,2.026,11.267,11.267,0,0,0,.672,1.745,3.763,3.763,0,0,1,.217-.77l.192-.384a3.235,3.235,0,0,0,1.294,1.458,5.442,5.442,0,0,0,2.216.558,6.384,6.384,0,0,1,2,.422,2.984,2.984,0,0,1,1.184.932,5.74,5.74,0,0,0-1.8-.6c-.932-.115-1.883.018-2.609-.052a3.615,3.615,0,0,1-1.839-.7,3.82,3.82,0,0,0-.3,2.327,6.258,6.258,0,0,0,.49,1.315,10.227,10.227,0,0,0,.688,1.169,11.645,11.645,0,0,1-4.951-6.137A11.983,11.983,0,0,1,38.966,12.57c.351.2.548.3.749.431.428.268.55.361.55.361m3.106,3.178a8.14,8.14,0,0,1-.6,3,5.678,5.678,0,0,1-.76,1.157A12,12,0,0,0,40.79,22.17a4.811,4.811,0,0,0-.631,1.252,9.161,9.161,0,0,0-.4,1.762s.286-.158.47-.24l.475-.209a10.325,10.325,0,0,1-.675,2.333,12.738,12.738,0,0,1-2.386,3.625,14.642,14.642,0,0,1-3,2.587s.457.192.808.323a5.486,5.486,0,0,0,.783.212,9.87,9.87,0,0,1-.878.651,9.343,9.343,0,0,1-1.342.669,15.075,15.075,0,0,0,2.271-.346,12.029,12.029,0,0,0,2.883-1.131,10.847,10.847,0,0,0,1.8-1.214,12.634,12.634,0,0,0,1.892-1.929,11.388,11.388,0,0,0,1.3-2.093,12.184,12.184,0,0,0,.994-2.945c.061-.3.108-.612.143-.922a12.643,12.643,0,0,0-.152-3.73,10.2,10.2,0,0,0-.507-1.787,11.754,11.754,0,0,0-.757-1.691,7.7,7.7,0,0,0-.517-.809" transform="translate(-21.439 -11.197)"/>
    </clipPath>
  </defs>
  <g id="black" transform="translate(-1.131 -7.745)">
    <path id="Caminho_49788" data-name="Caminho 49788" d="M6.8-5.977A2.5,2.5,0,0,1,5.924-3.92a3.872,3.872,0,0,1-2.5.715H2.531V0h-1.4V-8.566H3.6A3.732,3.732,0,0,1,6-7.91,2.356,2.356,0,0,1,6.8-5.977ZM2.531-4.383h.744a2.666,2.666,0,0,0,1.582-.375,1.365,1.365,0,0,0,.5-1.172,1.33,1.33,0,0,0-.451-1.1A2.228,2.228,0,0,0,3.5-7.395H2.531Zm14.188.088a4.686,4.686,0,0,1-1.046,3.252A3.783,3.783,0,0,1,12.711.117,3.809,3.809,0,0,1,9.732-1.034a4.715,4.715,0,0,1-1.04-3.272A4.642,4.642,0,0,1,9.738-7.564,3.854,3.854,0,0,1,12.723-8.7a3.776,3.776,0,0,1,2.953,1.154A4.681,4.681,0,0,1,16.719-4.295Zm-6.539,0a3.841,3.841,0,0,0,.639,2.4,2.255,2.255,0,0,0,1.893.817A2.251,2.251,0,0,0,14.6-1.887a3.848,3.848,0,0,0,.636-2.408,3.856,3.856,0,0,0-.63-2.391A2.227,2.227,0,0,0,12.723-7.5a2.274,2.274,0,0,0-1.9.814A3.8,3.8,0,0,0,10.18-4.295ZM26.946,0H25.423L23.97-5.109q-.094-.334-.234-.964t-.17-.876q-.059.375-.19.973t-.22.891L21.737,0H20.214L19.106-4.289,17.981-8.566h1.43l1.225,4.992a21.575,21.575,0,0,1,.41,2.121q.064-.5.193-1.113t.234-1l1.395-5h1.389l1.43,5.027a18.794,18.794,0,0,1,.434,2.086,15.292,15.292,0,0,1,.422-2.133l1.219-4.98h1.418Zm8.891,0H30.991V-8.566h4.846v1.184H32.392v2.332H35.62v1.172H32.392v2.689h3.445Zm3.852-4.582h.973a2.221,2.221,0,0,0,1.418-.363,1.318,1.318,0,0,0,.439-1.078,1.16,1.16,0,0,0-.475-1.043,2.6,2.6,0,0,0-1.43-.316h-.926Zm0,1.16V0h-1.4V-8.566h2.42a3.976,3.976,0,0,1,2.455.621,2.23,2.23,0,0,1,.8,1.875A2.344,2.344,0,0,1,42.3-3.791L44.716,0H43.123L41.072-3.422ZM51.4,0H46.559V-8.566H51.4v1.184H47.959v2.332h3.229v1.172H47.959v2.689H51.4Zm9.418-4.365a4.269,4.269,0,0,1-1.178,3.243A4.73,4.73,0,0,1,56.252,0h-2.4V-8.566H56.5a4.382,4.382,0,0,1,3.182,1.1A4.116,4.116,0,0,1,60.823-4.365Zm-1.477.047q0-3.076-2.877-3.076H55.256v6.217h1Q59.346-1.178,59.346-4.318ZM66.98-8.566h2.543a4.826,4.826,0,0,1,2.558.516,1.805,1.805,0,0,1,.788,1.629,1.974,1.974,0,0,1-.387,1.248,1.729,1.729,0,0,1-1.113.627v.059a2.21,2.21,0,0,1,1.327.671,2.029,2.029,0,0,1,.425,1.356,2.2,2.2,0,0,1-.806,1.808A3.466,3.466,0,0,1,70.073,0H66.98Zm1.4,3.539h1.348a2.307,2.307,0,0,0,1.283-.278,1.066,1.066,0,0,0,.4-.946.948.948,0,0,0-.437-.873,2.726,2.726,0,0,0-1.386-.27H68.38Zm0,1.137v2.713h1.488A2.191,2.191,0,0,0,71.2-1.515a1.244,1.244,0,0,0,.448-1.063,1.129,1.129,0,0,0-.457-.99A2.422,2.422,0,0,0,69.8-3.891ZM77.8-4.658l2.027-3.908h1.523L78.5-3.322V0H77.1V-3.275L74.254-8.566h1.523Z" transform="translate(0 24.744)"/>
    <g id="Grupo_27843" data-name="Grupo 27843" transform="translate(24816.832 21965.021)">
      <g id="Grupo_de_máscara_3823" data-name="Grupo de máscara 3823" transform="translate(-24717.238 -21957.277)" clip-path="url(#clip-path)">
        <path id="Caminho_42181" data-name="Caminho 42181" d="M0,6.384,27.317,0l8.5,27.683L8.5,34.067Z" transform="translate(25.598 33.605) rotate(-164.991)"/>
      </g>
      <path id="Caminho_46659" data-name="Caminho 46659" d="M4.136-37.731H6.054V-54.814H4.136Zm6.818-17.083v17.083H12.86v-13.6l10.507,13.6h1.727V-54.814H23.188v13.6l-10.519-13.6Zm18.957,0v17.083h1.906v-13.6l10.507,13.6h1.727V-54.814H42.145v13.6l-10.519-13.6ZM57.3-39.208a7.021,7.021,0,0,1-7.064-7.04A7.042,7.042,0,0,1,57.3-53.313a7.027,7.027,0,0,1,7.064,7.064A7.014,7.014,0,0,1,57.3-39.208Zm8.97-7.04a8.963,8.963,0,0,0-8.97-8.982,8.978,8.978,0,0,0-8.97,8.982,8.93,8.93,0,0,0,8.97,8.934A8.93,8.93,0,0,0,66.272-46.249Zm15.145-8.565L75.794-40.4,70.147-54.814H68.17l6.659,17.083h1.906l6.659-17.083Zm9.451,0L83.624-37.731h2.061L87.9-42.866h7.612l2.2,5.134H99.79L92.547-54.814Zm.846,2.776,3.05,7.267H88.651Zm7.64-2.776V-52.9h5.611v15.165h1.918V-52.9h5.611v-1.918Zm16.813,17.083h1.918V-54.814h-1.918Zm15.252-1.477a7.021,7.021,0,0,1-7.064-7.04,7.042,7.042,0,0,1,7.064-7.064,7.026,7.026,0,0,1,7.064,7.064A7.014,7.014,0,0,1,131.417-39.208Zm8.97-7.04a8.963,8.963,0,0,0-8.97-8.982,8.978,8.978,0,0,0-8.97,8.982,8.93,8.93,0,0,0,8.97,8.934A8.93,8.93,0,0,0,140.388-46.249Zm4.28-8.565v17.083h1.906v-13.6l10.507,13.6h1.727V-54.814H156.9v13.6l-10.519-13.6Zm19.481,14.462-.739,1.739a13.323,13.323,0,0,0,5.063,1.215c2.835,0,6.3-1.334,6.3-4.67,0-6.29-9.6-4.026-9.6-8.375,0-2.3,2.609-2.764,4.408-2.764a10.345,10.345,0,0,1,3.955.893l.691-1.763a11.444,11.444,0,0,0-4.658-1.036c-2.883,0-6.3,1.263-6.3,4.658,0,6.206,9.6,4,9.6,8.375,0,2.085-2.74,2.788-4.4,2.788A11.375,11.375,0,0,1,164.149-40.352Z" transform="translate(-24618.281 -21898.547)"/>
      <g id="Grupo_27795" data-name="Grupo 27795" transform="translate(-24688.52 -21953.414)">
        <path id="Caminho_49783" data-name="Caminho 49783" d="M405.041,56.917H402.59v5.158h-4.628V44.882h7.447c4.1,0,6.582,2.432,6.582,5.943v.05C411.992,54.854,408.9,56.917,405.041,56.917Zm2.7-6.017c0-1.7-1.179-2.6-3.07-2.6H402.59v5.256h2.152c1.891,0,3-1.13,3-2.6Z" transform="translate(-397.962 -44.882)"/>
        <path id="Caminho_49784" data-name="Caminho 49784" d="M621.182,62.075l-3.684-5.5H615.37v5.5h-4.628V44.882h8.282c4.053,0,6.484,2.136,6.484,5.674v.05a5.338,5.338,0,0,1-3.684,5.329l4.2,6.14Zm.074-11.323c0-1.621-1.13-2.456-2.972-2.456H615.37v4.937h2.986c1.842,0,2.9-.982,2.9-2.432Z" transform="translate(-595.604 -44.882)"/>
        <path id="Caminho_49785" data-name="Caminho 49785" d="M847.9,62.075V44.882h4.627V62.075Z" transform="translate(-815.886 -44.882)"/>
        <path id="Caminho_49786" data-name="Caminho 49786" d="M947.809,62.075h-7.128V44.882h7.128c5.4,0,9.137,3.708,9.137,8.547v.05C956.946,58.317,953.212,62.075,947.809,62.075Zm4.76-8.6c0-3.046-2.088-4.76-5.183-4.76h-2.078v9.52h2.078c3.095,0,5.183-1.664,5.183-4.711Z" transform="translate(-902.069 -44.882)"/>
        <path id="Caminho_49787" data-name="Caminho 49787" d="M1186.878,62.075V44.882h13.345v3.787h-8.742v3.066h8.742V55.1h-8.742v3.188h8.742v3.787Z" transform="translate(-1130.75 -44.882)"/>
      </g>
    </g>
  </g>
</svg>
