<svg xmlns="http://www.w3.org/2000/svg" width="25" height="25" viewBox="0 0 11 11">
  <path id="instagram" d="M5.734-11.5a3.128,3.128,0,0,0-1.617.438,3.284,3.284,0,0,0-1.18,1.18A3.128,3.128,0,0,0,2.5-8.266v4.531a3.128,3.128,0,0,0,.438,1.617,3.284,3.284,0,0,0,1.18,1.18A3.128,3.128,0,0,0,5.734-.5h4.531a3.128,3.128,0,0,0,1.617-.437,3.284,3.284,0,0,0,1.18-1.18A3.128,3.128,0,0,0,13.5-3.734V-8.266a3.128,3.128,0,0,0-.437-1.617,3.284,3.284,0,0,0-1.18-1.18,3.128,3.128,0,0,0-1.617-.437Zm0,1h4.531a2.215,2.215,0,0,1,1.125.3,2.173,2.173,0,0,1,.813.813,2.215,2.215,0,0,1,.3,1.125v4.531a2.215,2.215,0,0,1-.3,1.125,2.173,2.173,0,0,1-.812.813,2.215,2.215,0,0,1-1.125.3H5.734a2.215,2.215,0,0,1-1.125-.3A2.173,2.173,0,0,1,3.8-2.609a2.215,2.215,0,0,1-.3-1.125V-8.266a2.215,2.215,0,0,1,.3-1.125,2.173,2.173,0,0,1,.813-.812A2.215,2.215,0,0,1,5.734-10.5Zm5.219,1.094a.437.437,0,0,0-.32.133.437.437,0,0,0-.133.32.437.437,0,0,0,.133.32.437.437,0,0,0,.32.133.437.437,0,0,0,.32-.133.437.437,0,0,0,.133-.32.437.437,0,0,0-.133-.32A.437.437,0,0,0,10.953-9.406ZM8-9a2.9,2.9,0,0,0-1.5.406A3.057,3.057,0,0,0,5.406-7.5,2.9,2.9,0,0,0,5-6a2.9,2.9,0,0,0,.406,1.5A3.057,3.057,0,0,0,6.5-3.406,2.9,2.9,0,0,0,8-3a2.9,2.9,0,0,0,1.5-.406A3.057,3.057,0,0,0,10.594-4.5,2.9,2.9,0,0,0,11-6a2.9,2.9,0,0,0-.406-1.5A3.057,3.057,0,0,0,9.5-8.594,2.9,2.9,0,0,0,8-9ZM8-8a1.983,1.983,0,0,1,1.008.266,1.946,1.946,0,0,1,.727.727A1.983,1.983,0,0,1,10-6a1.983,1.983,0,0,1-.266,1.008,1.946,1.946,0,0,1-.727.727A1.983,1.983,0,0,1,8-4a1.983,1.983,0,0,1-1.008-.266,1.946,1.946,0,0,1-.727-.727A1.983,1.983,0,0,1,6-6a1.983,1.983,0,0,1,.266-1.008,1.946,1.946,0,0,1,.727-.727A1.983,1.983,0,0,1,8-8Z" transform="translate(-2.5 11.5)" fill="#728cb5"/>
</svg>
